<svg width="20" height="25" viewBox="0 0 20 25" fill="none" xmlns="http://www.w3.org/2000/svg">
<path d="M15.5926 10H5.40741C5.18252 10 5 10.2235 5 10.5C5 10.7765 5.18252 11 5.40741 11H15.5926C15.8175 11 16 10.7765 16 10.5C16 10.2235 15.8175 10 15.5926 10Z" fill="#656D79"/>
<path d="M5.41667 8H9.58333C9.81333 8 10 7.7765 10 7.5C10 7.2235 9.81333 7 9.58333 7H5.41667C5.18667 7 5 7.2235 5 7.5C5 7.7765 5.18667 8 5.41667 8Z" fill="#656D79"/>
<path d="M15.5926 14H5.40741C5.18252 14 5 14.2235 5 14.5C5 14.7765 5.18252 15 5.40741 15H15.5926C15.8175 15 16 14.7765 16 14.5C16 14.2235 15.8175 14 15.5926 14Z" fill="#656D79"/>
<path d="M15.5926 17H5.40741C5.18252 17 5 17.2235 5 17.5C5 17.7765 5.18252 18 5.40741 18H15.5926C15.8175 18 16 17.7765 16 17.5C16 17.2235 15.8175 17 15.5926 17Z" fill="#656D79"/>
<path d="M15.5926 20H5.40741C5.18252 20 5 20.2235 5 20.5C5 20.7765 5.18252 21 5.40741 21H15.5926C15.8175 21 16 20.7765 16 20.5C16 20.2235 15.8175 20 15.5926 20Z" fill="#656D79"/>
<path d="M17.9167 6.0775V0H0V22.9167H2.08333V25H20V8.16083L17.9167 6.0775ZM14.1667 3.50583L17.9167 7.25583L18.5775 7.91667H14.1667V3.50583ZM0.833333 22.0833V0.833333H17.0833V5.24417L13.9225 2.08333H2.08333V22.0833H0.833333ZM2.91667 24.1667V22.9167V2.91667H13.3333V8.75H19.1667V24.1667H2.91667Z" fill="#656D79"/>
</svg>
