<?xml version="1.0" encoding="UTF-8" standalone="no"?>
<svg width="20px" height="25px" viewBox="0 0 20 25" version="1.1" xmlns="http://www.w3.org/2000/svg"
     xmlns:xlink="http://www.w3.org/1999/xlink">
    <!-- Generator: Sketch 50.2 (55047) - http://www.bohemiancoding.com/sketch -->
    <title>file</title>
    <desc>Created with Sketch.</desc>
    <defs></defs>
    <g id="Page-1" stroke="none" stroke-width="1" fill="none" fill-rule="evenodd">
        <g id="LISTE-INTRANET" transform="translate(-155.000000, -137.000000)" fill="#656D79" fill-rule="nonzero">
            <g id="Header" transform="translate(0.000000, 107.000000)">
                <g id="intranet" transform="translate(155.000000, 30.000000)">
                    <g id="file">
                        <path d="M15.5925926,10 L5.40740741,10 C5.18251852,10 5,10.2235 5,10.5 C5,10.7765 5.18251852,11 5.40740741,11 L15.5925926,11 C15.8174815,11 16,10.7765 16,10.5 C16,10.2235 15.8174815,10 15.5925926,10 Z"
                              id="Shape"></path>
                        <path d="M5.41666667,8 L9.58333333,8 C9.81333333,8 10,7.7765 10,7.5 C10,7.2235 9.81333333,7 9.58333333,7 L5.41666667,7 C5.18666667,7 5,7.2235 5,7.5 C5,7.7765 5.18666667,8 5.41666667,8 Z"
                              id="Shape"></path>
                        <path d="M15.5925926,14 L5.40740741,14 C5.18251852,14 5,14.2235 5,14.5 C5,14.7765 5.18251852,15 5.40740741,15 L15.5925926,15 C15.8174815,15 16,14.7765 16,14.5 C16,14.2235 15.8174815,14 15.5925926,14 Z"
                              id="Shape"></path>
                        <path d="M15.5925926,17 L5.40740741,17 C5.18251852,17 5,17.2235 5,17.5 C5,17.7765 5.18251852,18 5.40740741,18 L15.5925926,18 C15.8174815,18 16,17.7765 16,17.5 C16,17.2235 15.8174815,17 15.5925926,17 Z"
                              id="Shape"></path>
                        <path d="M15.5925926,20 L5.40740741,20 C5.18251852,20 5,20.2235 5,20.5 C5,20.7765 5.18251852,21 5.40740741,21 L15.5925926,21 C15.8174815,21 16,20.7765 16,20.5 C16,20.2235 15.8174815,20 15.5925926,20 Z"
                              id="Shape"></path>
                        <path d="M17.9166667,6.0775 L17.9166667,0 L0,0 L0,22.9166667 L2.08333333,22.9166667 L2.08333333,25 L20,25 L20,8.16083333 L17.9166667,6.0775 Z M14.1666667,3.50583333 L17.9166667,7.25583333 L18.5775,7.91666667 L14.1666667,7.91666667 L14.1666667,3.50583333 Z M0.833333333,22.0833333 L0.833333333,0.833333333 L17.0833333,0.833333333 L17.0833333,5.24416667 L13.9225,2.08333333 L2.08333333,2.08333333 L2.08333333,22.0833333 L0.833333333,22.0833333 Z M2.91666667,24.1666667 L2.91666667,22.9166667 L2.91666667,2.91666667 L13.3333333,2.91666667 L13.3333333,8.75 L19.1666667,8.75 L19.1666667,24.1666667 L2.91666667,24.1666667 Z"
                              id="Shape"></path>
                    </g>
                </g>
            </g>
        </g>
    </g>
</svg>
