<svg width="39" height="38" viewBox="0 0 39 38" fill="none" xmlns="http://www.w3.org/2000/svg">
<path d="M24.3445 30.1043C24.8663 30.2637 25.4009 30.3848 25.9435 30.4647C25.147 32.6697 23.0392 34.263 20.5492 34.263H5.75392C2.58088 34.263 0 31.701 0 28.5527V10.6054C0 7.45622 2.58088 4.89476 5.75392 4.89476H10.1825C10.5853 2.13599 12.9621 0 15.8526 0H23.8356C27.0079 0 29.5893 2.56146 29.5893 5.71064V9.60059C29.0499 9.49069 28.5007 9.42056 27.9454 9.39675V5.71064C27.9454 3.46239 26.1025 1.63176 23.8356 1.63176H15.8526C13.8683 1.63176 12.2076 3.03482 11.8263 4.89502H20.5508C23.3265 4.89502 25.648 6.85648 26.1858 9.45353C25.6432 9.51895 25.1085 9.63696 24.5757 9.78506C24.1937 7.92801 22.5337 6.52652 20.5527 6.52652H5.75709C3.4918 6.52652 1.64729 8.3574 1.64729 10.6057V28.5529C1.64729 30.7996 3.49206 32.632 5.75709 32.632H20.5527C22.2609 32.63 23.7281 31.583 24.3445 30.1043ZM32.4423 28.5144C27.6984 31.2327 21.6123 29.6137 18.8743 24.9071C16.1352 20.2021 17.7672 14.1609 22.5079 11.444C27.2502 8.7274 33.3379 10.3437 36.077 15.0514C38.8158 19.7572 37.1814 25.7962 32.4423 28.5144ZM31.6205 27.1028C35.5779 24.837 36.9359 19.7957 34.6514 15.8673C32.3684 11.9381 27.2889 10.5868 23.3302 12.8549C19.372 15.1231 18.0129 20.162 20.2974 24.091C22.582 28.0199 27.6612 29.3701 31.6205 27.1028ZM34.9372 27.9089L30.6634 30.3566L33.9514 36.0065L38.2252 33.5589L34.9372 27.9089ZM38.6681 34.3269L34.3959 36.7743C35.0767 37.9468 36.5858 38.3487 37.7641 37.6699C38.9442 36.9943 39.352 35.4981 38.6681 34.3269ZM4.93028 10.8058V12.0296H15.8718V10.8058H4.93028ZM13.3555 16.2459H4.93028V17.4695H13.3555V16.2459ZM4.93028 22.9077H13.3555V21.6839H4.93028V22.9077ZM4.93028 28.3454H15.8718V27.1219H4.93028V28.3454Z" fill="#45D492"/>
</svg>
