<svg xmlns="http://www.w3.org/2000/svg" xmlns:xlink="http://www.w3.org/1999/xlink" height="570" width="640"
     viewBox="0 0 640 570">
    <rect width="100%" height="100%" fill="none"/>
    <defs>
        <path id="b" d="M21 246L9 0H0l9 246h12z"/>
        <path id="c" d="M12 260L0 14 196 0v269l-184-9z"/>
        <path id="d" d="M0 35.5L2.5 2 26 0v35.5L14.182 24.81 0 35.5z"/>
        <path id="e"
              d="M74.64 65.28l38.64-.96C114.24 26.88 94.8 8.4 60.96 8.4s-52.8 19.2-52.8 48c0 50.16 64.8 51.12 64.8 78.48 0 7.68-3.6 12.24-11.52 12.24-10.32 0-14.4-6.72-13.92-25.44H6.96c-3.12 46.32 24 56.88 54.96 56.88 30 0 53.52-13.92 53.52-44.16 0-53.76-65.76-52.32-65.76-78.96 0-10.8 7.68-12.24 12.24-12.24 4.8 0 13.44 1.92 12.72 22.08z"/>
    </defs>
    <g stroke-width="0" class="currentLayer">
        <clipPath id="a" clip-rule="evenodd" transform="matrix(2 0 0 2 -4322 -506)">
            <path d="M2161 253h1020v288H2161V253z" fill="#FFF"/>
        </clipPath>
        <g clip-path="url(#a)">
            <use xmlns:xlink="http://www.w3.org/1999/xlink" xlink:href="#b" transform="matrix(2 0 0 2 10 44)"
                 fill="#FF0C40"/>
            <use xmlns:xlink="http://www.w3.org/1999/xlink" xlink:href="#c" transform="matrix(2 0 0 2 38 16)"
                 fill="#FF0C40"/>
            <use xmlns:xlink="http://www.w3.org/1999/xlink" xlink:href="#d" transform="matrix(2 0 0 2 330 17)"
                 fill="#FFF"/>
            <use xmlns:xlink="http://www.w3.org/1999/xlink" xlink:href="#e" transform="matrix(2 0 0 2 118 96)"
                 fill="#FFF"/>
        </g>
    </g>
</svg>
