<svg width="25" height="21" viewBox="0 0 25 21" fill="none" xmlns="http://www.w3.org/2000/svg">
<path d="M15.0864 3.60438C16.2424 4.32781 17.0529 5.552 17.2005 6.97301C17.6719 7.19287 18.1951 7.31931 18.7498 7.31931C20.775 7.31931 22.4164 5.68093 22.4164 3.65981C22.4164 1.63838 20.775 0 18.7498 0C16.744 0.00062284 15.117 1.60973 15.0864 3.60438ZM12.6844 11.0978C14.7095 11.0978 16.3509 9.45908 16.3509 7.43796C16.3509 5.41684 14.7092 3.77846 12.6844 3.77846C10.6596 3.77846 9.01722 5.41715 9.01722 7.43827C9.01722 9.45939 10.6596 11.0978 12.6844 11.0978ZM14.2397 11.3472H11.1285C8.53987 11.3472 6.43392 13.4496 6.43392 16.0335V19.8312L6.44359 19.8907L6.70567 19.9726C9.17603 20.7431 11.3222 21 13.0887 21C16.5391 21 18.5389 20.0181 18.6622 19.9555L18.9071 19.8319H18.9333V16.0335C18.9342 13.4496 16.8283 11.3472 14.2397 11.3472ZM20.3058 7.56907H17.2186C17.1852 8.80198 16.6579 9.9122 15.824 10.7107C18.1249 11.3936 19.8084 13.5234 19.8084 16.0391V17.2094C22.8566 17.0979 24.6131 16.2356 24.7289 16.1777L24.9738 16.0537H25V12.2547C25 9.67115 22.894 7.56907 20.3058 7.56907ZM6.25078 7.31993C6.96805 7.31993 7.6354 7.11097 8.20074 6.75502C8.38044 5.58501 9.0088 4.56262 9.9064 3.86628C9.91015 3.79777 9.9167 3.72988 9.9167 3.66074C9.9167 1.63932 8.27499 0.000934261 6.25078 0.000934261C4.22532 0.000934261 2.58424 1.63932 2.58424 3.66074C2.58424 5.68124 4.22532 7.31993 6.25078 7.31993ZM9.54355 10.7107C8.71365 9.91624 8.18826 8.81195 8.14988 7.58651C8.03538 7.5781 7.92213 7.56907 7.80544 7.56907H4.69456C2.10595 7.56907 0 9.67115 0 12.2547V16.0531L0.00967178 16.1116L0.271746 16.1942C2.25353 16.8117 4.02221 17.0963 5.55847 17.186V16.0391C5.55909 13.5234 7.24198 11.3942 9.54355 10.7107Z" fill="#656D79"/>
</svg>
