<?xml version="1.0" encoding="UTF-8" standalone="no"?>
<svg width="25px" height="21px" viewBox="0 0 25 21" version="1.1" xmlns="http://www.w3.org/2000/svg"
     xmlns:xlink="http://www.w3.org/1999/xlink">
    <!-- Generator: Sketch 50.2 (55047) - http://www.bohemiancoding.com/sketch -->
    <title>multiple-users-silhouette</title>
    <desc>Created with Sketch.</desc>
    <defs></defs>
    <g id="Page-1" stroke="none" stroke-width="1" fill="none" fill-rule="evenodd">
        <g id="LISTE-INTRANET" transform="translate(-540.000000, -140.000000)" fill="#656D79" fill-rule="nonzero">
            <g id="Header" transform="translate(0.000000, 107.000000)">
                <g id="OGI" transform="translate(540.000000, 33.000000)">
                    <g id="multiple-users-silhouette">
                        <path d="M15.0864221,3.60437768 C16.2423562,4.32780686 17.052914,5.55199976 17.2004867,6.97301025 C17.6719081,7.19287293 18.1951204,7.31930954 18.749844,7.31930954 C20.7749906,7.31930954 22.4163859,5.68092774 22.4163859,3.65981048 C22.4163859,1.6383818 20.7749906,0 18.749844,0 C16.7440409,0.000622840449 15.1169974,1.60973114 15.0864221,3.60437768 Z M12.6843879,11.0977711 C14.7095345,11.0977711 16.3509297,9.4590779 16.3509297,7.43796064 C16.3509297,5.41684339 14.7092225,3.77846158 12.6843879,3.77846158 C10.6595532,3.77846158 9.01722201,5.41715481 9.01722201,7.43827206 C9.01722201,9.45938932 10.6595532,11.0977711 12.6843879,11.0977711 Z M14.239673,11.3472187 L11.1284787,11.3472187 C8.53987271,11.3472187 6.43391988,13.4496167 6.43391988,16.0334703 L6.43391988,19.8312399 L6.44359166,19.8907212 L6.70566579,19.9726247 C9.17602646,20.7430783 11.3222264,21 13.0887308,21 C16.5390615,21 18.5389367,20.018092 18.662174,19.9554966 L18.9070885,19.8318627 L18.9332959,19.8318627 L18.9332959,16.0334703 C18.9342319,13.4496167 16.828279,11.3472187 14.239673,11.3472187 Z M20.3057532,7.56906856 L17.2185823,7.56906856 C17.1851991,8.80198123 16.6579309,9.91219433 15.8239735,10.7106758 C18.124922,11.3936203 19.8084363,13.5234232 19.8084363,16.0390758 L19.8084363,17.209393 C22.856608,17.0979046 24.6131287,16.235582 24.7288781,16.1776578 L24.9737926,16.0537126 L25,16.0537126 L25,12.2546973 C25,9.67115507 22.8940472,7.56906856 20.3057532,7.56906856 Z M6.25077998,7.31993238 C6.96805192,7.31993238 7.63540497,7.11096941 8.2007363,6.75501609 C8.38044428,5.58501031 9.0087982,4.56261771 9.9064021,3.86628209 C9.91014601,3.79776964 9.91669787,3.72988003 9.91669787,3.66074474 C9.91669787,1.63931606 8.27499064,0.000934260674 6.25077998,0.000934260674 C4.22532135,0.000934260674 2.58423811,1.63931606 2.58423811,3.66074474 C2.58423811,5.68123916 4.22532135,7.31993238 6.25077998,7.31993238 Z M9.54355422,10.7106758 C8.71365281,9.91624279 8.18825658,8.81194667 8.14988144,7.58650809 C8.03538001,7.57809974 7.92212654,7.56906856 7.80544116,7.56906856 L4.69455884,7.56906856 C2.10595283,7.56906856 0,9.67115507 0,12.2546973 L0,16.0530897 L0.00967178335,16.1116367 L0.271745913,16.1941631 C2.25352552,16.8117094 4.0222139,17.0963475 5.55846749,17.1860365 L5.55846749,16.0390758 C5.55909148,13.5234232 7.24198178,11.3942432 9.54355422,10.7106758 Z"
                              id="Shape"></path>
                    </g>
                </g>
            </g>
        </g>
    </g>
</svg>
