<?xml version="1.0" encoding="UTF-8" standalone="no"?>
<svg width="26px" height="22px" viewBox="0 0 26 22" version="1.1" xmlns="http://www.w3.org/2000/svg"
     xmlns:xlink="http://www.w3.org/1999/xlink">
    <!-- Generator: Sketch 50.2 (55047) - http://www.bohemiancoding.com/sketch -->
    <title>Group 2</title>
    <desc>Created with Sketch.</desc>
    <defs></defs>
    <g id="Page-1" stroke="none" stroke-width="1" fill="none" fill-rule="evenodd">
        <g id="LISTE-INTRANET" transform="translate(-357.000000, -137.000000)">
            <g id="Header" transform="translate(0.000000, 107.000000)">
                <g id="OGP" transform="translate(357.000000, 30.000000)">
                    <g id="Group-2">
                        <rect id="Rectangle-7" stroke="#656D79" stroke-width="2" x="1" y="1" width="24"
                              height="20"></rect>
                        <path d="M11.9721357,16.8046721 C12.1071305,16.9346685 12.2843544,17 12.4615784,17 C12.6388024,17 12.8160263,16.9346685 12.9510211,16.8046721 L17.7969886,12.1381351 C18.0676705,11.8774756 18.0676705,11.456154 17.7969886,11.1954946 C17.5263067,10.9348351 17.088785,10.9348351 16.8181031,11.1954946 L12.4615784,15.3907114 L10.1818969,13.195439 C9.91121495,12.9347796 9.47369332,12.9347796 9.20301142,13.195439 C8.93232953,13.4560984 8.93232953,13.8774201 9.20301142,14.1380795 L11.9721357,16.8046721 Z"
                              id="Shape" fill="#656D79" fill-rule="nonzero"></path>
                        <rect id="Rectangle-8" fill="#656D79" x="1" y="0" width="25" height="6"></rect>
                        <circle id="Oval-2" fill="#262C35" cx="3" cy="2" r="1"></circle>
                        <circle id="Oval-2" fill="#262C35" cx="6" cy="2" r="1"></circle>
                        <circle id="Oval-2" fill="#262C35" cx="9" cy="2" r="1"></circle>
                    </g>
                </g>
            </g>
        </g>
    </g>
</svg>
