<svg width="26" height="22" viewBox="0 0 26 22" fill="none" xmlns="http://www.w3.org/2000/svg">
<path d="M25 1H1V21H25V1Z" stroke="#656D79" stroke-width="2"/>
<path d="M11.9721 16.8047C12.1071 16.9347 12.2844 17 12.4616 17C12.6388 17 12.816 16.9347 12.951 16.8047L17.797 12.1381C18.0677 11.8775 18.0677 11.4562 17.797 11.1955C17.5263 10.9348 17.0888 10.9348 16.8181 11.1955L12.4616 15.3907L10.1819 13.1954C9.91122 12.9348 9.47369 12.9348 9.20301 13.1954C8.93233 13.4561 8.93233 13.8774 9.20301 14.1381L11.9721 16.8047Z" fill="#656D79"/>
<path d="M26 0H1V6H26V0Z" fill="#656D79"/>
<path d="M3 3C3.55228 3 4 2.55228 4 2C4 1.44772 3.55228 1 3 1C2.44772 1 2 1.44772 2 2C2 2.55228 2.44772 3 3 3Z" fill="#262C35"/>
<path d="M6 3C6.55228 3 7 2.55228 7 2C7 1.44772 6.55228 1 6 1C5.44772 1 5 1.44772 5 2C5 2.55228 5.44772 3 6 3Z" fill="#262C35"/>
<path d="M9 3C9.55228 3 10 2.55228 10 2C10 1.44772 9.55228 1 9 1C8.44772 1 8 1.44772 8 2C8 2.55228 8.44772 3 9 3Z" fill="#262C35"/>
</svg>
